<svg id="Layer_1" data-name="Layer 1" xmlns="http://www.w3.org/2000/svg" viewBox="0 0 114.74 113.74">
  <defs>
    <style>
      .cls-1 {
        isolation: isolate;
      }

      .cls-2 {
        fill: #2f2867;
      }

      .cls-3 {
        fill: #e86047;
      }

      .cls-4 {
        fill: #b0dfe0;
      }

      .cls-5 {
        fill: #58499e;
      }
    </style>
  </defs>
  <title>HYF_bootcamp_logo(1)</title>
  <g class="cls-1">
    <path class="cls-2" d="M36.15,21.86,34.6,18H25.89l-1.55,3.88H21.85l7-17.51h2.7l7.06,17.51ZM30.24,6.61,26.52,16h7.42Z" transform="translate(0 -4.07)"/>
  </g>
  <g class="cls-1">
    <path class="cls-2" d="M42.89,13.12a8.75,8.75,0,0,1,9-9,7.82,7.82,0,0,1,6.64,3.46l-1.84,1A5.89,5.89,0,0,0,51.89,6C48.06,6,45.15,9,45.15,13.12s2.91,7.11,6.74,7.11a5.84,5.84,0,0,0,4.8-2.54l1.87,1a7.91,7.91,0,0,1-6.67,3.46A8.75,8.75,0,0,1,42.89,13.12Z" transform="translate(0 -4.07)"/>
    <path class="cls-2" d="M74.9,21.86,68.26,14,66.5,16v5.88H64.33V4.35H66.5v9.06l7.75-9.06H77l-7.3,8.32,7.93,9.19Z" transform="translate(0 -4.07)"/>
  </g>
  <g class="cls-1">
    <path class="cls-2" d="M23,48.11c0-5.17,3.49-9,8.69-9s8.68,3.88,8.68,9-3.51,9-8.68,9S23,53.28,23,48.11Zm15.12,0C38.07,44,35.55,41,31.64,41s-6.43,3-6.43,7.11,2.49,7.11,6.43,7.11S38.07,52.18,38.07,48.11Z" transform="translate(0 -4.07)"/>
    <path class="cls-2" d="M46.72,50.05V39.34H48.9V50c0,3.2,1.73,5.22,5,5.22s5-2,5-5.22V39.34H61V50c0,4.35-2.39,7.13-7.14,7.13S46.72,54.36,46.72,50.05Z" transform="translate(0 -4.07)"/>
    <path class="cls-2" d="M78.21,56.85l-4.46-7H70.26v7H68.08V39.34h7c3.2,0,5.48,2,5.48,5.28a4.83,4.83,0,0,1-4.54,5.09l4.72,7.14Zm.13-12.23a3.25,3.25,0,0,0-3.49-3.33H70.26V48h4.59A3.27,3.27,0,0,0,78.34,44.62Z" transform="translate(0 -4.07)"/>
  </g>
  <g class="cls-1">
    <path class="cls-2" d="M23.66,85V74.33h2.18V85c0,3.2,1.73,5.22,5,5.22s5-2,5-5.22V74.33h2.17V85c0,4.35-2.38,7.13-7.13,7.13S23.66,89.35,23.66,85Z" transform="translate(0 -4.07)"/>
    <path class="cls-2" d="M49.35,91.84V76.28H43.81v-2H57.09v2H51.52V91.84Z" transform="translate(0 -4.07)"/>
    <path class="cls-2" d="M63,85V74.33h2.18V85c0,3.2,1.74,5.22,5,5.22s5-2,5-5.22V74.33h2.18V85c0,4.35-2.39,7.13-7.14,7.13S63,89.35,63,85Z" transform="translate(0 -4.07)"/>
    <path class="cls-2" d="M94.45,91.84l-4.46-7H86.5v7H84.32V74.33h7c3.2,0,5.48,2,5.48,5.28A4.83,4.83,0,0,1,92.3,84.7L97,91.84Zm.14-12.23a3.25,3.25,0,0,0-3.5-3.33H86.5V83h4.59A3.28,3.28,0,0,0,94.59,79.61Z" transform="translate(0 -4.07)"/>
    <path class="cls-2" d="M103.27,91.84V74.33h11.47v2h-9.29v5.64h9.1v1.94h-9.1v6h9.29v1.94Z" transform="translate(0 -4.07)"/>
  </g>
  <polygon class="cls-3" points="5.5 35.23 1.6 35.23 7.8 45.93 7.8 53.43 11 53.43 11 44.93 5.5 35.23"/>
  <rect class="cls-4" x="3.2" y="70.33" width="12.9" height="3.2"/>
  <rect class="cls-4" x="3.2" y="78.43" width="7.3" height="3.2"/>
  <rect class="cls-5" y="0.23" width="4.3" height="17.5"/>
  <rect class="cls-5" x="11.5" y="0.23" width="4.3" height="17.5"/>
  <g class="cls-1">
    <path class="cls-5" d="M23.49,104.63h3.9a3.64,3.64,0,0,1,2.48.76,2.21,2.21,0,0,1,.83,1.8,2.19,2.19,0,0,1-.45,1.39,2.41,2.41,0,0,1-1.27.82,2.47,2.47,0,0,1,1.35.74,2,2,0,0,1,.54,1.46A2.42,2.42,0,0,1,29.1,114a5.11,5.11,0,0,1-1.7.24H23.49Zm1.76,4.07h2.06a1.76,1.76,0,0,0,1.19-.34,1.16,1.16,0,0,0,.41-.93,1.19,1.19,0,0,0-.4-.93,1.7,1.7,0,0,0-1.18-.35H25.25Zm2.11,4a1.88,1.88,0,0,0,1.23-.34,1.17,1.17,0,0,0,.37-.91,1.19,1.19,0,0,0-.39-.92,1.8,1.8,0,0,0-1.21-.34H25.25v2.51Z" transform="translate(0 -4.07)"/>
    <path class="cls-5" d="M36,106.86a4.15,4.15,0,0,1,1.37.23,2.86,2.86,0,0,1,1.1.71,4.55,4.55,0,0,1,0,5.74,3.31,3.31,0,0,1-2.47.95,3.39,3.39,0,0,1-2.5-.95,4.51,4.51,0,0,1,0-5.74A3.37,3.37,0,0,1,36,106.86Zm1.74,3.81a2.74,2.74,0,0,0-.45-1.72,1.49,1.49,0,0,0-1.24-.57,1.66,1.66,0,0,0-1.3.57,2.51,2.51,0,0,0-.51,1.72,2.73,2.73,0,0,0,.46,1.71,1.47,1.47,0,0,0,1.24.58,1.62,1.62,0,0,0,1.29-.58A2.5,2.5,0,0,0,37.71,110.67Z" transform="translate(0 -4.07)"/>
    <path class="cls-5" d="M44.38,106.86a4.06,4.06,0,0,1,1.37.23,2.72,2.72,0,0,1,1.1.71,4.51,4.51,0,0,1,0,5.74,3.28,3.28,0,0,1-2.47.95,3.37,3.37,0,0,1-2.49-.95,4.51,4.51,0,0,1,0-5.74A3.33,3.33,0,0,1,44.38,106.86Zm1.74,3.81a2.74,2.74,0,0,0-.44-1.72,1.49,1.49,0,0,0-1.24-.57,1.65,1.65,0,0,0-1.3.57,2.51,2.51,0,0,0-.51,1.72,2.73,2.73,0,0,0,.45,1.71,1.5,1.5,0,0,0,1.25.58,1.63,1.63,0,0,0,1.29-.58A2.5,2.5,0,0,0,46.12,110.67Z" transform="translate(0 -4.07)"/>
    <path class="cls-5" d="M54,114.1a4.55,4.55,0,0,1-1.55.39,3.24,3.24,0,0,1-1-.14,2,2,0,0,1-1.44-2.08v-4h-1v-1.18h1v-1.9h1.76v1.9h2v1.18h-2v4c0,.6.28.9.85.9a3.53,3.53,0,0,0,1.11-.24Z" transform="translate(0 -4.07)"/>
    <path class="cls-5" d="M58.59,106.86a3.16,3.16,0,0,1,1.22.23,3,3,0,0,1,.92.6,2.9,2.9,0,0,1,.87,1.8l-1.77.05a1.57,1.57,0,0,0-.43-.79,1,1,0,0,0-.74-.31,1.85,1.85,0,0,0-.71.12,1.35,1.35,0,0,0-.52.4,2.63,2.63,0,0,0-.51,1.72,2.47,2.47,0,0,0,.48,1.66,1.46,1.46,0,0,0,1.15.56,1.31,1.31,0,0,0,1-.32,1.24,1.24,0,0,0,.3-.87H61.6a2.71,2.71,0,0,1-.78,2,3.08,3.08,0,0,1-2.25.8,3.14,3.14,0,0,1-2.39-1,3.94,3.94,0,0,1-1-2.78,3.83,3.83,0,0,1,1-2.81A3.18,3.18,0,0,1,58.59,106.86Z" transform="translate(0 -4.07)"/>
    <path class="cls-5" d="M66.09,110.06a8.31,8.31,0,0,1,2,.28v-.71a1.71,1.71,0,0,0-.31-1.13,1.22,1.22,0,0,0-1-.36,1.82,1.82,0,0,0-1.07.27,1,1,0,0,0-.37.78H63.43a2,2,0,0,1,.87-1.78,4.51,4.51,0,0,1,2.43-.55,2.79,2.79,0,0,1,2.89,1.56,3.28,3.28,0,0,1,.22,1.27v4.59H68.31l-.13-1A2.32,2.32,0,0,1,66,114.49a3.17,3.17,0,0,1-2.18-.69,2.14,2.14,0,0,1-.71-1.65,1.76,1.76,0,0,1,.79-1.55A3.74,3.74,0,0,1,66.09,110.06Zm2,1.4a6.26,6.26,0,0,0-1.64-.24c-1,0-1.43.31-1.43,1a.88.88,0,0,0,.33.69,1.85,1.85,0,0,0,2.24-.19A1.82,1.82,0,0,0,68.09,111.46Z" transform="translate(0 -4.07)"/>
    <path class="cls-5" d="M78.82,108.42a2.49,2.49,0,0,1,2.46-1.56,2.41,2.41,0,0,1,2,.88,3.53,3.53,0,0,1,.69,2.32v4.22H82.2v-4.22a1.68,1.68,0,0,0-.39-1.21,1.4,1.4,0,0,0-1.08-.41,1.36,1.36,0,0,0-1.15.61,3.22,3.22,0,0,0-.47,1.84v3.39H77.35v-4.22a1.68,1.68,0,0,0-.39-1.21,1.38,1.38,0,0,0-1.08-.41,1.47,1.47,0,0,0-1.2.62,3.11,3.11,0,0,0-.53,1.87v3.35H72.4v-7.23h1.53l.19,1.25a2.4,2.4,0,0,1,2.3-1.44,2.55,2.55,0,0,1,1.5.42A2.44,2.44,0,0,1,78.82,108.42Z" transform="translate(0 -4.07)"/>
    <path class="cls-5" d="M88.12,108a2.24,2.24,0,0,1,2.08-1.18,3.06,3.06,0,0,1,2.29,1,3.93,3.93,0,0,1,1,2.8,3.88,3.88,0,0,1-1,2.81,3,3,0,0,1-2.27,1,2.27,2.27,0,0,1-1.93-.79v4.1H86.51V107.05H88Zm1.77,4.86a1.68,1.68,0,0,0,.64-.14,1.64,1.64,0,0,0,.61-.41,2.37,2.37,0,0,0,.59-1.68,2.46,2.46,0,0,0-.51-1.64,1.58,1.58,0,0,0-1.25-.59,1.76,1.76,0,0,0-1.21.42,1.64,1.64,0,0,0-.49,1.21v1.3a1.43,1.43,0,0,0,.49,1.13A1.68,1.68,0,0,0,89.89,112.9Z" transform="translate(0 -4.07)"/>
  </g>
</svg>
