<svg xmlns="http://www.w3.org/2000/svg" viewBox="0 0 168 60.82">
  <defs>
    <style>
      .cls-1 {
        fill: #b0dfe0;
      }

      .cls-2 {
        fill: #58499e;
      }

      .cls-3 {
        fill: #e86047;
      }

      .cls-4 {
        fill: #302767;
      }
    </style>
  </defs>
  <title>HORIZAsset 1</title>
  <g id="Layer_2" data-name="Layer 2">
    <g id="Layer_1-2" data-name="Layer 1">
      <rect class="cls-1" x="66.29" width="42.6" height="10.68"/>
      <rect class="cls-1" x="66.29" y="27.04" width="24.03" height="10.68"/>
      <rect class="cls-2" width="14.36" height="57.98"/>
      <rect class="cls-2" x="38.04" width="14.36" height="57.98"/>
      <polygon class="cls-3" points="52.37 0 38.76 0 60.42 34.1 60.42 57.98 71.77 57.98 71.77 30.9 52.37 0"/>
      <g>
        <path class="cls-4" d="M86,45.83h4.43a4.23,4.23,0,0,1,2.83.86,2.55,2.55,0,0,1,.94,2,2.48,2.48,0,0,1-.51,1.59,2.75,2.75,0,0,1-1.45.93,2.86,2.86,0,0,1,1.54.84,2.28,2.28,0,0,1,.61,1.67,2.74,2.74,0,0,1-2,2.77,5.74,5.74,0,0,1-1.93.27H86Zm2,4.64h2.36a2.1,2.1,0,0,0,1.35-.39A1.31,1.31,0,0,0,92.17,49,1.35,1.35,0,0,0,91.72,48a2,2,0,0,0-1.35-.39H88Zm2.41,4.6a2,2,0,0,0,1.39-.39,1.44,1.44,0,0,0,0-2l0,0a2,2,0,0,0-1.37-.4H88v2.86Z"/>
        <path class="cls-4" d="M100.49,48.37a4.6,4.6,0,0,1,1.56.26,3.31,3.31,0,0,1,1.25.8,4.47,4.47,0,0,1,1.17,3.29A4.41,4.41,0,0,1,103.3,56a3.72,3.72,0,0,1-2.81,1.08A3.89,3.89,0,0,1,97.65,56a4.38,4.38,0,0,1-1.17-3.25,4.47,4.47,0,0,1,1.17-3.29A3.85,3.85,0,0,1,100.49,48.37Zm2,4.33a3.21,3.21,0,0,0-.5-2,1.68,1.68,0,0,0-1.42-.65,1.86,1.86,0,0,0-1.48.65,2.87,2.87,0,0,0-.57,2,3.15,3.15,0,0,0,.51,2,1.73,1.73,0,0,0,1.42.65,1.92,1.92,0,0,0,1.47-.65,2.92,2.92,0,0,0,.55-2Z"/>
        <path class="cls-4" d="M110.41,48.37a4.86,4.86,0,0,1,1.56.26,3.31,3.31,0,0,1,1.25.8,4.47,4.47,0,0,1,1.17,3.29A4.42,4.42,0,0,1,113.22,56a3.72,3.72,0,0,1-2.81,1.08A3.89,3.89,0,0,1,107.57,56a4.38,4.38,0,0,1-1.17-3.25,4.47,4.47,0,0,1,1.17-3.29A3.84,3.84,0,0,1,110.41,48.37Zm2,4.33a3.14,3.14,0,0,0-.51-2,1.65,1.65,0,0,0-1.41-.65,1.86,1.86,0,0,0-1.48.65,2.82,2.82,0,0,0-.58,2,3.14,3.14,0,0,0,.52,2,1.71,1.71,0,0,0,1.41.65,1.89,1.89,0,0,0,1.47-.65,2.87,2.87,0,0,0,.56-2Z"/>
        <path class="cls-4" d="M121.73,56.61a5.12,5.12,0,0,1-1.76.44,3.52,3.52,0,0,1-1.12-.15,2.55,2.55,0,0,1-.86-.46,2.42,2.42,0,0,1-.78-1.91v-4.6h-1.15V48.59h1.15V46.42h2v2.17h2.23v1.34h-2.23v4.53a.88.88,0,0,0,1,1,4,4,0,0,0,1.27-.27Z"/>
        <path class="cls-4" d="M127.25,48.37a3.47,3.47,0,0,1,1.39.26,3.36,3.36,0,0,1,1.05.69,3.28,3.28,0,0,1,1,2l-2,.06a1.87,1.87,0,0,0-.5-.9,1.16,1.16,0,0,0-.84-.36,1.88,1.88,0,0,0-.81.15,1.46,1.46,0,0,0-.59.45,3,3,0,0,0-.58,2,2.81,2.81,0,0,0,.54,1.88,1.66,1.66,0,0,0,1.32.64,1.47,1.47,0,0,0,1.11-.36,1.41,1.41,0,0,0,.35-1h2a3,3,0,0,1-.89,2.25,3.45,3.45,0,0,1-2.56.91,3.55,3.55,0,0,1-2.72-1.18,4.46,4.46,0,0,1-1.17-3.17,4.4,4.4,0,0,1,1.17-3.2A3.64,3.64,0,0,1,127.25,48.37Z"/>
        <path class="cls-4" d="M136.13,52a9.14,9.14,0,0,1,2.27.32v-.81a1.89,1.89,0,0,0-.35-1.28,1.4,1.4,0,0,0-1.13-.42,2,2,0,0,0-1.21.32,1,1,0,0,0-.42.89H133.1a2.22,2.22,0,0,1,1-2,5.16,5.16,0,0,1,2.77-.63c1.69,0,2.79.59,3.28,1.78a3.66,3.66,0,0,1,.26,1.43v5.23h-1.74l-.16-1.1a2.62,2.62,0,0,1-2.44,1.34,3.57,3.57,0,0,1-2.47-.78,2.44,2.44,0,0,1-.81-1.88,2,2,0,0,1,.9-1.76A4.21,4.21,0,0,1,136.13,52Zm2.27,1.59a7.33,7.33,0,0,0-1.86-.27c-1.08,0-1.63.36-1.63,1.08a1,1,0,0,0,.38.79,1.75,1.75,0,0,0,1.19.33,1.83,1.83,0,0,0,1.35-.55,2,2,0,0,0,.57-1.37Z"/>
        <path class="cls-4" d="M151,50.15a2.83,2.83,0,0,1,2.79-1.78,2.74,2.74,0,0,1,2.28,1,4,4,0,0,1,.78,2.64v4.8h-2V52a2,2,0,0,0-.44-1.38,1.6,1.6,0,0,0-1.24-.47,1.56,1.56,0,0,0-1.3.7,3.66,3.66,0,0,0-.54,2.09V56.8h-2V52a1.91,1.91,0,0,0-.44-1.38,1.57,1.57,0,0,0-1.23-.47,1.7,1.7,0,0,0-1.36.71,3.54,3.54,0,0,0-.61,2.14v3.8h-2V48.59h1.74l.22,1.42a2.72,2.72,0,0,1,2.61-1.64,3,3,0,0,1,1.71.47A2.88,2.88,0,0,1,151,50.15Z"/>
        <path class="cls-4" d="M161.87,49.71a2.55,2.55,0,0,1,2.37-1.34,3.45,3.45,0,0,1,2.61,1.15,5,5,0,0,1,0,6.38,3.42,3.42,0,0,1-2.59,1.15,2.6,2.6,0,0,1-2.2-.9v4.67h-2V48.59h1.64Zm2,5.53a2,2,0,0,0,1.42-.63,2.65,2.65,0,0,0,.68-1.9,2.76,2.76,0,0,0-.59-1.87,1.82,1.82,0,0,0-1.42-.68,1.92,1.92,0,0,0-1.37.49A1.87,1.87,0,0,0,162,52v1.48a1.61,1.61,0,0,0,.56,1.28,1.86,1.86,0,0,0,1.33.48Z"/>
      </g>
    </g>
  </g>
</svg>
