<svg id="Layer_1" data-name="Layer 1" xmlns="http://www.w3.org/2000/svg" xmlns:xlink="http://www.w3.org/1999/xlink" viewBox="0 0 69.55 69.98"><defs><style>.cls-1,.cls-15,.cls-16,.cls-2,.cls-3,.cls-4{fill:none;}.cls-2,.cls-3{clip-rule:evenodd;}.cls-15,.cls-3,.cls-4{stroke:#2f2767;}.cls-15,.cls-16,.cls-3,.cls-4{stroke-linecap:round;stroke-linejoin:round;}.cls-5{clip-path:url(#clip-path);}.cls-6{clip-path:url(#clip-path-2);}.cls-7{clip-path:url(#clip-path-3);}.cls-8{isolation:isolate;}.cls-9{clip-path:url(#clip-path-4);}.cls-10{clip-path:url(#clip-path-5);}.cls-11{clip-path:url(#clip-path-6);}.cls-12{fill:#f9ddd2;}.cls-13{clip-path:url(#clip-path-7);}.cls-14{clip-path:url(#clip-path-8);}.cls-15{fill-rule:evenodd;}.cls-16{stroke:#f9e2a6;}</style><clipPath id="clip-path"><rect class="cls-1" x="-240.97" y="225.57" width="64.23" height="70.77"/></clipPath><clipPath id="clip-path-2"><rect class="cls-1" x="13.65" y="9.48" width="39.57" height="43.6"/></clipPath><clipPath id="clip-path-3"><rect class="cls-1" x="-78.75" y="-236.84" width="610.36" height="629.44"/></clipPath><clipPath id="clip-path-4"><rect class="cls-1" x="13.23" y="9.42" width="41.54" height="45.78"/></clipPath><clipPath id="clip-path-5"><path class="cls-2" d="M18.61,31.53A4,4,0,0,0,13.82,35c-.41,3.92-.36,10.48,4,12.93C24.27,51.53,29,49.29,29,49.29s5.14,5.93,16,3c7.39-1.84,6.59-2.48,7-3.93s2.41-16.66.24-24.11.24-7.13-3.21-9.94a37.72,37.72,0,0,0-8.63-4.79l-4.46,1.17a3.63,3.63,0,0,0-2.36,4.22l1,4.45,3.73-.69,6.32,1.89S42,37,41.54,38.47c-1.2-1-5.78-6.09-13.26-.8C26.89,37,23,32.52,18.61,31.53"/></clipPath><clipPath id="clip-path-6"><rect class="cls-1" x="13.65" y="9.42" width="39.84" height="43.66"/></clipPath><clipPath id="clip-path-7"><path class="cls-3" d="M17.66,32a4,4,0,0,0-4.8,3.46c-.41,3.92-.36,10.48,4,12.93,6.43,3.61,11.17,1.36,11.17,1.36s5.15,5.93,16,3c7.4-1.84,6.59-2.48,7-3.93s2.41-16.66.24-24.11.24-7.14-3.22-9.94a36.08,36.08,0,0,0-8.13-4.59,1.56,1.56,0,0,0-1-.06l-4,1a3.65,3.65,0,0,0-2.37,4.23l.73,3.27a1.25,1.25,0,0,0,1.45,1l2.53-.48L43.64,21s-2.59,16.5-3,18c-1.21-1-5.79-6.09-13.26-.8C25.93,37.45,22,33,17.66,32"/></clipPath><clipPath id="clip-path-8"><rect class="cls-4" x="12.7" y="9.87" width="39.84" height="43.66"/></clipPath></defs><title>arm</title><g class="cls-6"><g class="cls-7"><g class="cls-8"><g class="cls-9"><g class="cls-10"><g class="cls-11"><rect class="cls-12" x="11.53" y="7.37" width="43.81" height="47.83"/></g></g></g></g></g></g><g class="cls-8"><g class="cls-13"><g class="cls-14"><rect class="cls-4" x="10.58" y="7.81" width="43.81" height="47.83"/></g><rect class="cls-4" x="12.7" y="9.87" width="39.84" height="43.66"/></g><path class="cls-15" d="M17.66,32a4,4,0,0,0-4.8,3.46c-.41,3.92-.36,10.48,4,12.93,6.43,3.61,11.17,1.36,11.17,1.36s5.15,5.93,16,3c7.4-1.84,6.59-2.48,7-3.93s2.41-16.66.24-24.11.24-7.14-3.22-9.94a36.08,36.08,0,0,0-8.13-4.59,1.56,1.56,0,0,0-1-.06l-4,1a3.65,3.65,0,0,0-2.37,4.23l.73,3.27a1.25,1.25,0,0,0,1.45,1l2.53-.48L43.64,21s-2.59,16.5-3,18c-1.21-1-5.79-6.09-13.26-.8C25.93,37.45,22,33,17.66,32"/></g><line class="cls-16" x1="34.45" y1="32.16" x2="34.03" y2="27.99"/><line class="cls-16" x1="37.64" y1="32.71" x2="39.17" y2="29.86"/><line class="cls-16" x1="30.84" y1="33.19" x2="29.02" y2="30.51"/></svg>