<svg id="Layer_1" data-name="Layer 1" xmlns="http://www.w3.org/2000/svg" xmlns:xlink="http://www.w3.org/1999/xlink" viewBox="0 0 62.42 61.08"><defs><style>.cls-1,.cls-3,.cls-30{fill:none;}.cls-11,.cls-2,.cls-9{fill:#f9e2a6;}.cls-2,.cls-3{clip-rule:evenodd;}.cls-4{clip-path:url(#clip-path);}.cls-5{clip-path:url(#clip-path-2);}.cls-6{clip-path:url(#clip-path-3);}.cls-7{clip-path:url(#clip-path-4);}.cls-8{clip-path:url(#clip-path-5);}.cls-9{fill-rule:evenodd;}.cls-10{clip-path:url(#clip-path-6);}.cls-12{clip-path:url(#clip-path-7);}.cls-13{clip-path:url(#clip-path-8);}.cls-14{clip-path:url(#clip-path-9);}.cls-15{clip-path:url(#clip-path-10);}.cls-16{clip-path:url(#clip-path-11);}.cls-17{clip-path:url(#clip-path-12);}.cls-18{clip-path:url(#clip-path-13);}.cls-19{clip-path:url(#clip-path-14);}.cls-20{clip-path:url(#clip-path-15);}.cls-21{clip-path:url(#clip-path-16);}.cls-22{clip-path:url(#clip-path-17);}.cls-23{clip-path:url(#clip-path-18);}.cls-24{clip-path:url(#clip-path-19);}.cls-25{clip-path:url(#clip-path-20);}.cls-26{fill:#afdedf;}.cls-27{clip-path:url(#clip-path-21);}.cls-28,.cls-29{font-size:9.65px;font-family:Quicksand-Bold, Quicksand;font-weight:700;}.cls-28{fill:#ec7241;}.cls-29{fill:#2f1d68;}.cls-30{stroke:#2f2767;stroke-linecap:round;stroke-miterlimit:10;stroke-width:2px;}</style><clipPath id="clip-path"><rect class="cls-1" x="-785.65" y="-7.93" width="92.44" height="101.85"/></clipPath><clipPath id="clip-path-2"><path class="cls-3" d="M-723.87-7.09a3.92,3.92,0,0,0-1,.14c-1.91.49-8.42,2.2-12.23,3.46a5.62,5.62,0,0,0-3.79,4.4c-.11.62-.17,2.91-.17,3.4,0,2.37.47,3.14,2.36,9.59.34,1.11,1.79,3,5.07,3a16,16,0,0,0,6.17-1.55h0a.06.06,0,0,1,.05,0c2.44,1.85,3.16,2.39,11.4,3.93a.35.35,0,0,1,.29.27,28.33,28.33,0,0,1,.86,3.67c-.64,2.1-2.88,9.64-4.71,18.39a1.49,1.49,0,0,0,1.13,1.77,1.63,1.63,0,0,0,.31,0,1.47,1.47,0,0,0,1.43-1.18c4.92-23.51,5.77-15.45,3.83-23.39a3.3,3.3,0,0,0-2.61-2.49c-7.88-1.47-8.21-1.89-10.18-3.39a2.94,2.94,0,0,0-1.8-.61,3,3,0,0,0-1.19.25,13.17,13.17,0,0,1-5,1.31c-1.76,0-2.21-.78-2.28-.94-2.33-8-2.33-6.72-2.15-10.7a5.74,5.74,0,0,1,.06-.82,2.67,2.67,0,0,1,1.8-2.12c3.73-1.23,10.17-2.92,12.06-3.41l.19,0c2.66,0,15.82,9.49,17.66,10.84a13,13,0,0,1,4.63,9.53c.32,4.84.73,9.14,1.24,13.14A1.48,1.48,0,0,0-699,30.71h.19A1.5,1.5,0,0,0-697.52,29c-.51-3.94-.91-8.17-1.23-12.94-.35-5.28-2.85-9.54-5.8-11.72-.52-.39-12.94-9.55-18-11.25A4,4,0,0,0-723.87-7.09Z"/></clipPath><clipPath id="clip-path-3"><path class="cls-3" d="M-696.77,33.52a1,1,0,0,0-.24,0,1.46,1.46,0,0,0-1.22,1.68,91.48,91.48,0,0,1,1.7,15.4c.2,11.11-2.27,22.1-3.19,29.51a6.1,6.1,0,0,1-4.06,5A67.31,67.31,0,0,1-725,89c-8,0-15.56-2.06-21-7.64A4.53,4.53,0,0,0-749.27,80a4.53,4.53,0,0,0-1.31.2,34.32,34.32,0,0,1-9.7,1.42,30,30,0,0,1-7.5-.93c-8.91-2.33-12.89-13.88-12.89-24.29V48.58a4.32,4.32,0,0,1,4.33-4.3h.4a29.11,29.11,0,0,1,17,7.72,46.78,46.78,0,0,1,5.19,5.77,2.83,2.83,0,0,0,2.28,1.11,2.86,2.86,0,0,0,2.09-.89,17.7,17.7,0,0,1,13-5.59,17.89,17.89,0,0,1,14.48,7.29,2.17,2.17,0,0,0,1.77.9,2.19,2.19,0,0,0,2.22-2.07,87.83,87.83,0,0,1,1.3-10.78,1.48,1.48,0,0,0-1.21-1.7l-.26,0a1.48,1.48,0,0,0-1.46,1.22c-.58,3.34-1,6.42-1.21,9.18a20.79,20.79,0,0,0-15.58-7,20.8,20.8,0,0,0-15.09,6.43,48.88,48.88,0,0,0-5.47-6,32.38,32.38,0,0,0-18.69-8.49c-.23,0-.47,0-.7,0a7.27,7.27,0,0,0-7.33,7.24c0,7.92-.53,15.84,3.34,24.17,2.67,5.74,6.74,9.46,11.76,10.77a32.63,32.63,0,0,0,8.26,1A37.19,37.19,0,0,0-749.73,83a1.76,1.76,0,0,1,.45-.07,1.59,1.59,0,0,1,1.13.47c6.06,6.22,14.37,8.54,23.14,8.54a70.31,70.31,0,0,0,22.19-4.06,9.05,9.05,0,0,0,6-7.39c.92-7.37,3.42-18.48,3.22-29.92a94.29,94.29,0,0,0-1.74-15.82,1.48,1.48,0,0,0-1.47-1.23"/></clipPath><clipPath id="clip-path-4"><path class="cls-3" d="M-754.47,40.45a1.5,1.5,0,0,0-1.1.47,1.36,1.36,0,0,0,.12,2c6.29,5.38,6.22,5.47,6.88,5.47h.08a1.4,1.4,0,0,0,1-2.45l-6-5.12a1.54,1.54,0,0,0-1-.35"/></clipPath><clipPath id="clip-path-5"><path class="cls-3" d="M-725.59,37.48a1.32,1.32,0,0,0-1.1.58l-4.25,6.16a1.41,1.41,0,0,0,.33,1.92,1.29,1.29,0,0,0,.77.25,1.33,1.33,0,0,0,1.1-.58l4.24-6.16a1.39,1.39,0,0,0-.32-1.92,1.33,1.33,0,0,0-.77-.25"/></clipPath><clipPath id="clip-path-6"><path class="cls-2" d="M-740.6,32.53h-.17a1.47,1.47,0,0,0-1.3,1.63l1,8.93a1.49,1.49,0,0,0,1.46,1.31,1.48,1.48,0,0,0,1.47-1.64l-1-8.94a1.47,1.47,0,0,0-1.46-1.3"/></clipPath><clipPath id="clip-path-7"><path class="cls-3" d="M-249,92a.34.34,0,0,1-.26-.11l-12.57-12.64H-270a7.31,7.31,0,0,1-7.28-7.34V49.51A7.31,7.31,0,0,1-270,42.17h19.62V8.9A11.78,11.78,0,0,1-238.67-2.91h69.12A11.78,11.78,0,0,1-157.82,8.9v8.66a.36.36,0,0,1-.36.36.37.37,0,0,1-.37-.36V8.9a11,11,0,0,0-11-11.07h-69.12a11,11,0,0,0-11,11.07V45.65a11.05,11.05,0,0,0,11,11.07h34.56a.38.38,0,0,1,.37.37v20l20.17-20.31a.38.38,0,0,1,.26-.11h13.76a11,11,0,0,0,11-11.07V37a.38.38,0,0,1,.37-.37.37.37,0,0,1,.36.37v8.66a11.77,11.77,0,0,1-11.73,11.8h-13.61l-20.69,20.83a.38.38,0,0,1-.26.11.31.31,0,0,1-.13,0,.37.37,0,0,1-.23-.34V57.45h-16.15V71.89a7.32,7.32,0,0,1-7.29,7.34H-248.6V91.62a.36.36,0,0,1-.22.33ZM-270,42.9a6.6,6.6,0,0,0-6.56,6.61V71.89a6.59,6.59,0,0,0,6.56,6.6h8.39a.4.4,0,0,1,.26.11l12,12.13V78.86a.38.38,0,0,1,.37-.37h21.05a6.59,6.59,0,0,0,6.56-6.6V57.45h-17.32a11.77,11.77,0,0,1-11.73-11.8V42.9Z"/></clipPath><clipPath id="clip-path-8"><path class="cls-3" d="M-170.36-4.08h-68.79A13.77,13.77,0,0,0-252.87,9.71v31h-17.48a9.33,9.33,0,0,0-9.3,9.34V72.31a9.33,9.33,0,0,0,9.3,9.34H-263l11.91,12a2.41,2.41,0,0,0,1.7.7,2.47,2.47,0,0,0,.92-.18A2.4,2.4,0,0,0-247,91.91V81.65h18.55a9.33,9.33,0,0,0,9.3-9.34V60h12V78.4a2.42,2.42,0,0,0,1.48,2.23,2.47,2.47,0,0,0,.92.18,2.39,2.39,0,0,0,1.7-.7l20-20.1h12.7a13.76,13.76,0,0,0,13.71-13.78V37.62a2.4,2.4,0,0,0-2.4-2.41,2.4,2.4,0,0,0-2.4,2.41v8.61a9,9,0,0,1-8.91,9h-13.7a2.4,2.4,0,0,0-1.69.71l-16.61,16.68v-15a2.4,2.4,0,0,0-2.4-2.42h-34.39a8.93,8.93,0,0,1-8.91-9V9.71a8.94,8.94,0,0,1,8.91-9h68.79a9,9,0,0,1,8.91,9v8.6a2.4,2.4,0,0,0,2.4,2.41,2.4,2.4,0,0,0,2.4-2.41V9.71A13.77,13.77,0,0,0-170.36-4.08Zm-100,80.9a4.5,4.5,0,0,1-4.49-4.51V50.06a4.5,4.5,0,0,1,4.49-4.51h17.48v.68A13.76,13.76,0,0,0-239.15,60H-224v12.3a4.5,4.5,0,0,1-4.49,4.51h-21a2.4,2.4,0,0,0-2.4,2.41v6.85l-8.51-8.55a2.41,2.41,0,0,0-1.7-.71Z"/></clipPath><clipPath id="clip-path-9"><path class="cls-3" d="M-181.3,12.32H-228a2.38,2.38,0,0,0-2.4,2.35A2.38,2.38,0,0,0-228,17h46.75a2.38,2.38,0,0,0,2.4-2.34,2.38,2.38,0,0,0-2.4-2.35"/></clipPath><clipPath id="clip-path-10"><path class="cls-3" d="M-178.9,26.38A2.38,2.38,0,0,0-181.3,24H-228a2.38,2.38,0,0,0-2.4,2.34,2.37,2.37,0,0,0,2.4,2.34h46.75a2.37,2.37,0,0,0,2.4-2.34"/></clipPath><clipPath id="clip-path-11"><path class="cls-3" d="M-228.06,38.09a2.37,2.37,0,0,0-2.39,2.35,2.37,2.37,0,0,0,2.39,2.34h26.85a2.37,2.37,0,0,0,2.39-2.34,2.37,2.37,0,0,0-2.39-2.35Z"/></clipPath><clipPath id="clip-path-12"><path class="cls-3" d="M-159,25.21a2.34,2.34,0,0,0-2.34,2.34A2.34,2.34,0,0,0-159,29.89a2.34,2.34,0,0,0,2.34-2.34A2.34,2.34,0,0,0-159,25.21"/></clipPath><clipPath id="clip-path-13"><path class="cls-3" d="M133.63,47.14a1,1,0,0,1-.65-.24l-6.48-5.52a1,1,0,0,1,0-1.53L133,34.33a1,1,0,1,1,1.3,1.52l-5.58,4.76,5.58,4.76a1,1,0,0,1-.65,1.77"/></clipPath><clipPath id="clip-path-14"><path class="cls-3" d="M146.73,47.14a1,1,0,0,1-.65-1.77l5.59-4.76-5.59-4.76a1,1,0,0,1,1.3-1.52l6.48,5.52a1,1,0,0,1,0,1.53l-6.48,5.52a1,1,0,0,1-.65.24"/></clipPath><clipPath id="clip-path-15"><path class="cls-3" d="M137.68,51.71l-.23,0a1,1,0,0,1-.83-1.21L141,31a1.08,1.08,0,0,1,1.28-.79,1,1,0,0,1,.84,1.21l-4.37,19.5a1.06,1.06,0,0,1-1,.81"/></clipPath><clipPath id="clip-path-16"><path class="cls-3" d="M126.32,12.55a3.59,3.59,0,1,0,3.59,3.59,3.6,3.6,0,0,0-3.59-3.59m0,4.91a1.32,1.32,0,1,1,1.32-1.32,1.33,1.33,0,0,1-1.32,1.32"/></clipPath><clipPath id="clip-path-17"><path class="cls-3" d="M117.49,19.73a3.59,3.59,0,1,1,3.59-3.59,3.6,3.6,0,0,1-3.59,3.59m0-4.91a1.32,1.32,0,1,0,1.32,1.32,1.33,1.33,0,0,0-1.32-1.32"/></clipPath><clipPath id="clip-path-18"><path class="cls-3" d="M135.06,19.73a3.59,3.59,0,1,1,3.59-3.59,3.59,3.59,0,0,1-3.59,3.59m0-4.91a1.32,1.32,0,1,0,1.32,1.32,1.32,1.32,0,0,0-1.32-1.32"/></clipPath><clipPath id="clip-path-19"><path class="cls-3" d="M61.78,21.82H1.29v-7.4a8,8,0,0,1,8-8H53.75a8,8,0,0,1,8,8Z"/></clipPath><clipPath id="clip-path-20"><rect class="cls-1" x="-709.14" y="-372.64" width="926.65" height="955.6"/></clipPath><clipPath id="clip-path-21"><rect class="cls-1" x="10.94" y="34.05" width="40.54" height="10.94"/></clipPath></defs><title>Artboard 10</title><path class="cls-9" d="M-740.6,32.53h-.17a1.47,1.47,0,0,0-1.3,1.63l1,8.93a1.49,1.49,0,0,0,1.46,1.31,1.48,1.48,0,0,0,1.47-1.64l-1-8.94a1.47,1.47,0,0,0-1.46-1.3"/><g class="cls-10"><rect class="cls-11" x="-1001.53" y="-583.43" width="1426" height="1470.56"/></g><g class="cls-24"><g class="cls-25"><rect class="cls-26" x="-1.93" y="3.16" width="66.92" height="21.88"/></g></g><g class="cls-27"><text class="cls-28" transform="translate(12.84 43.7)">6</text><text class="cls-29" transform="translate(18.13 43.7)"><tspan xml:space="preserve"> weeks</tspan></text></g><line class="cls-30" x1="1.24" y1="36.71" x2="1.24" y2="39.79"/><path class="cls-30" d="M1.24,43.45v9.86a5.4,5.4,0,0,0,5.4,5.4h49.2a5.4,5.4,0,0,0,5.4-5.4V11.81a5.4,5.4,0,0,0-5.4-5.4H6.64a5.4,5.4,0,0,0-5.4,5.4V33.38"/><line class="cls-30" x1="19.04" y1="1" x2="19.04" y2="10.17"/><line class="cls-30" x1="43.69" y1="1" x2="43.69" y2="10.17"/><line class="cls-30" x1="1.29" y1="21.82" x2="61.24" y2="21.82"/></svg>