<svg id="Layer_1" data-name="Layer 1" xmlns="http://www.w3.org/2000/svg" xmlns:xlink="http://www.w3.org/1999/xlink" viewBox="0 0 63.27 55.41"><defs><style>.cls-1,.cls-3,.cls-31,.cls-32{fill:none;}.cls-11,.cls-2,.cls-9{fill:#f9e2a6;}.cls-2,.cls-3{clip-rule:evenodd;}.cls-4{clip-path:url(#clip-path);}.cls-5{clip-path:url(#clip-path-2);}.cls-6{clip-path:url(#clip-path-3);}.cls-7{clip-path:url(#clip-path-4);}.cls-8{clip-path:url(#clip-path-5);}.cls-9{fill-rule:evenodd;}.cls-10{clip-path:url(#clip-path-6);}.cls-12{clip-path:url(#clip-path-7);}.cls-13{clip-path:url(#clip-path-8);}.cls-14{clip-path:url(#clip-path-9);}.cls-15{clip-path:url(#clip-path-10);}.cls-16{clip-path:url(#clip-path-11);}.cls-17{clip-path:url(#clip-path-12);}.cls-18{clip-path:url(#clip-path-13);}.cls-19{clip-path:url(#clip-path-14);}.cls-20{fill:#afdedf;}.cls-21{clip-path:url(#clip-path-15);}.cls-22{clip-path:url(#clip-path-17);}.cls-23{clip-path:url(#clip-path-19);}.cls-24{clip-path:url(#clip-path-20);}.cls-25{clip-path:url(#clip-path-21);}.cls-26{clip-path:url(#clip-path-22);}.cls-27{fill:#ec7241;}.cls-28{clip-path:url(#clip-path-23);}.cls-29{clip-path:url(#clip-path-24);}.cls-30{fill:#f9ddd2;}.cls-31,.cls-32{stroke:#2f2767;stroke-miterlimit:10;stroke-width:2px;}.cls-31{stroke-linecap:round;}.cls-33{clip-path:url(#clip-path-25);}</style><clipPath id="clip-path"><rect class="cls-1" x="-894.64" y="-16.32" width="92.44" height="101.85"/></clipPath><clipPath id="clip-path-2"><path class="cls-3" d="M-832.85-15.47a3.93,3.93,0,0,0-1,.13c-1.91.49-8.42,2.21-12.23,3.46a5.62,5.62,0,0,0-3.79,4.4c-.11.62-.17,2.91-.17,3.4,0,2.37.47,3.14,2.36,9.59.34,1.12,1.79,3,5.07,3A16,16,0,0,0-836.47,7h0a.06.06,0,0,1,.05,0c2.44,1.85,3.16,2.39,11.4,3.93a.35.35,0,0,1,.29.27,28.33,28.33,0,0,1,.86,3.67c-.64,2.1-2.88,9.64-4.71,18.39A1.49,1.49,0,0,0-827.42,35a1.63,1.63,0,0,0,.31,0,1.46,1.46,0,0,0,1.43-1.18c4.92-23.51,5.77-15.45,3.83-23.39A3.32,3.32,0,0,0-824.46,8c-7.88-1.47-8.21-1.89-10.18-3.39a3,3,0,0,0-1.8-.61,3,3,0,0,0-1.19.25,13.17,13.17,0,0,1-5,1.31c-1.76,0-2.21-.78-2.28-.94-2.33-8-2.33-6.72-2.15-10.7a5.74,5.74,0,0,1,.06-.82A2.67,2.67,0,0,1-845.21-9c3.73-1.23,10.17-2.92,12.06-3.41l.19,0c2.66,0,15.82,9.49,17.66,10.85a12.93,12.93,0,0,1,4.63,9.52c.32,4.84.73,9.14,1.24,13.14A1.48,1.48,0,0,0-808,22.32h.19a1.5,1.5,0,0,0,1.27-1.67c-.51-3.94-.91-8.17-1.23-12.94-.35-5.28-2.85-9.54-5.79-11.72-.53-.39-13-9.55-18.05-11.25A3.92,3.92,0,0,0-832.85-15.47Z"/></clipPath><clipPath id="clip-path-3"><path class="cls-3" d="M-805.76,25.13a1,1,0,0,0-.24,0,1.47,1.47,0,0,0-1.22,1.68,91.48,91.48,0,0,1,1.7,15.4c.2,11.11-2.27,22.1-3.19,29.51a6.07,6.07,0,0,1-4.06,5A67.31,67.31,0,0,1-834,80.61c-8,0-15.56-2.06-21-7.64a4.53,4.53,0,0,0-3.25-1.37,4.58,4.58,0,0,0-1.31.2,34.32,34.32,0,0,1-9.7,1.42,30,30,0,0,1-7.5-.93C-885.68,70-889.66,58.41-889.66,48V40.19a4.32,4.32,0,0,1,4.34-4.3,2.55,2.55,0,0,1,.39,0,29.06,29.06,0,0,1,17,7.71,46.78,46.78,0,0,1,5.19,5.77,2.83,2.83,0,0,0,2.28,1.11,2.86,2.86,0,0,0,2.09-.89,17.7,17.7,0,0,1,13-5.59,17.87,17.87,0,0,1,14.48,7.29,2.17,2.17,0,0,0,1.77.9,2.19,2.19,0,0,0,2.22-2.07,89.83,89.83,0,0,1,1.3-10.78,1.48,1.48,0,0,0-1.21-1.7l-.26,0a1.48,1.48,0,0,0-1.46,1.22c-.58,3.34-1,6.42-1.21,9.18a20.79,20.79,0,0,0-15.58-7,20.8,20.8,0,0,0-15.09,6.43,48.88,48.88,0,0,0-5.47-6A32.35,32.35,0,0,0-884.6,33c-.23,0-.47,0-.7,0a7.27,7.27,0,0,0-7.33,7.24c0,7.92-.53,15.84,3.34,24.17,2.67,5.74,6.74,9.46,11.76,10.77a32.63,32.63,0,0,0,8.26,1,37.14,37.14,0,0,0,10.55-1.55,1.74,1.74,0,0,1,.45-.06,1.58,1.58,0,0,1,1.13.46c6.06,6.22,14.37,8.54,23.14,8.54a70.31,70.31,0,0,0,22.19-4.06,9.05,9.05,0,0,0,6-7.39c.92-7.37,3.42-18.48,3.22-29.92a94.29,94.29,0,0,0-1.74-15.82,1.48,1.48,0,0,0-1.47-1.23"/></clipPath><clipPath id="clip-path-4"><path class="cls-3" d="M-863.46,32.06a1.5,1.5,0,0,0-1.1.47,1.37,1.37,0,0,0,.12,2c6.29,5.38,6.23,5.47,6.88,5.47h.08a1.4,1.4,0,0,0,1-2.45l-6-5.12a1.54,1.54,0,0,0-1-.35"/></clipPath><clipPath id="clip-path-5"><path class="cls-3" d="M-834.58,29.09a1.32,1.32,0,0,0-1.1.58l-4.25,6.16a1.41,1.41,0,0,0,.33,1.92,1.29,1.29,0,0,0,.77.25,1.33,1.33,0,0,0,1.1-.58l4.25-6.16a1.41,1.41,0,0,0-.33-1.92,1.31,1.31,0,0,0-.77-.25"/></clipPath><clipPath id="clip-path-6"><path class="cls-2" d="M-849.59,24.14h-.17A1.46,1.46,0,0,0-851,25.78l1,8.93A1.46,1.46,0,0,0-848.58,36a1.48,1.48,0,0,0,1.47-1.64l-1-8.94a1.47,1.47,0,0,0-1.46-1.3"/></clipPath><clipPath id="clip-path-7"><path class="cls-3" d="M-357.95,83.59a.34.34,0,0,1-.26-.11l-12.56-12.64H-379a7.32,7.32,0,0,1-7.28-7.34V41.12A7.32,7.32,0,0,1-379,33.78h19.62V.51a11.77,11.77,0,0,1,11.73-11.8h69.12A11.77,11.77,0,0,1-266.81.51V9.17a.36.36,0,0,1-.36.36.37.37,0,0,1-.37-.36V.51a11,11,0,0,0-11-11.07h-69.12a11,11,0,0,0-11,11.07V37.26a11.05,11.05,0,0,0,11,11.07h34.56a.38.38,0,0,1,.37.37v20l20.18-20.31a.34.34,0,0,1,.25-.11h13.76a11,11,0,0,0,11-11.07V28.6a.38.38,0,0,1,.37-.37.37.37,0,0,1,.36.37v8.66a11.77,11.77,0,0,1-11.73,11.8h-13.61l-20.69,20.83a.38.38,0,0,1-.26.11.31.31,0,0,1-.13,0,.37.37,0,0,1-.23-.34V49.06h-16.15V63.5a7.32,7.32,0,0,1-7.29,7.34h-20.69V83.23a.36.36,0,0,1-.22.33A.35.35,0,0,1-357.95,83.59ZM-379,34.52a6.58,6.58,0,0,0-6.55,6.6V63.5A6.59,6.59,0,0,0-379,70.11h8.39a.37.37,0,0,1,.26.1l12,12.13V70.47a.37.37,0,0,1,.37-.36h21.05a6.59,6.59,0,0,0,6.56-6.61V49.06h-17.32a11.77,11.77,0,0,1-11.73-11.8V34.52Z"/></clipPath><clipPath id="clip-path-8"><path class="cls-3" d="M-279.35-12.47h-68.79A13.77,13.77,0,0,0-361.86,1.32v31h-17.48a9.33,9.33,0,0,0-9.3,9.34V63.92a9.33,9.33,0,0,0,9.3,9.34H-372l11.91,12a2.41,2.41,0,0,0,1.7.7,2.47,2.47,0,0,0,.92-.18A2.4,2.4,0,0,0-356,83.52V73.26h18.55a9.33,9.33,0,0,0,9.3-9.34V51.62h12V70a2.42,2.42,0,0,0,1.48,2.23,2.29,2.29,0,0,0,.92.18,2.39,2.39,0,0,0,1.7-.7l20-20.1h12.7a13.76,13.76,0,0,0,13.71-13.78V29.23a2.4,2.4,0,0,0-2.4-2.41,2.4,2.4,0,0,0-2.4,2.41v8.61a8.94,8.94,0,0,1-8.91,8.95H-293a2.41,2.41,0,0,0-1.7.71l-16.6,16.68v-15a2.41,2.41,0,0,0-2.41-2.42h-34.39A8.93,8.93,0,0,1-357,37.84V1.32a8.94,8.94,0,0,1,8.91-9h68.79a9,9,0,0,1,8.91,9v8.6a2.4,2.4,0,0,0,2.4,2.41,2.4,2.4,0,0,0,2.4-2.41V1.32A13.77,13.77,0,0,0-279.35-12.47Zm-100,80.9a4.5,4.5,0,0,1-4.49-4.51V41.67a4.51,4.51,0,0,1,4.49-4.51h17.48v.68a13.76,13.76,0,0,0,13.72,13.78h15.19v12.3a4.5,4.5,0,0,1-4.49,4.51h-20.95a2.4,2.4,0,0,0-2.4,2.42v6.84l-8.51-8.55a2.41,2.41,0,0,0-1.7-.71Z"/></clipPath><clipPath id="clip-path-9"><path class="cls-3" d="M-290.29,3.93H-337a2.38,2.38,0,0,0-2.4,2.35A2.38,2.38,0,0,0-337,8.62h46.75a2.38,2.38,0,0,0,2.4-2.34,2.38,2.38,0,0,0-2.4-2.35"/></clipPath><clipPath id="clip-path-10"><path class="cls-3" d="M-287.89,18a2.38,2.38,0,0,0-2.4-2.34H-337a2.38,2.38,0,0,0-2.4,2.34,2.37,2.37,0,0,0,2.4,2.34h46.75a2.37,2.37,0,0,0,2.4-2.34"/></clipPath><clipPath id="clip-path-11"><path class="cls-3" d="M-337,29.71a2.36,2.36,0,0,0-2.39,2.34A2.37,2.37,0,0,0-337,34.39h26.85a2.37,2.37,0,0,0,2.39-2.34,2.36,2.36,0,0,0-2.39-2.34Z"/></clipPath><clipPath id="clip-path-12"><path class="cls-3" d="M-268,16.82a2.34,2.34,0,0,0-2.34,2.34A2.35,2.35,0,0,0-268,21.51a2.35,2.35,0,0,0,2.34-2.35A2.34,2.34,0,0,0-268,16.82"/></clipPath><clipPath id="clip-path-13"><path class="cls-3" d="M24.64,38.75a1,1,0,0,1-.65-.24L17.51,33a1,1,0,0,1,0-1.53L24,25.94a1,1,0,0,1,1.42.11,1,1,0,0,1-.12,1.41l-5.58,4.76L25.29,37a1,1,0,0,1,.12,1.41,1,1,0,0,1-.77.35"/></clipPath><clipPath id="clip-path-14"><rect class="cls-1" x="-323.5" y="-385.45" width="939.77" height="969.13"/></clipPath><clipPath id="clip-path-15"><path class="cls-3" d="M37.74,38.75A1,1,0,0,1,37.09,37l5.59-4.77-5.59-4.76a1,1,0,1,1,1.3-1.52l6.48,5.52a1,1,0,0,1,0,1.53l-6.48,5.52a1,1,0,0,1-.65.24"/></clipPath><clipPath id="clip-path-17"><path class="cls-3" d="M28.69,43.32l-.23,0a1,1,0,0,1-.83-1.21L32,22.59a1.07,1.07,0,0,1,1.28-.78,1,1,0,0,1,.84,1.2l-4.37,19.5a1.06,1.06,0,0,1-1,.81"/></clipPath><clipPath id="clip-path-19"><path class="cls-3" d="M17.33,4.16a3.59,3.59,0,1,0,3.59,3.59,3.59,3.59,0,0,0-3.59-3.59m0,4.91a1.32,1.32,0,1,1,1.33-1.32,1.33,1.33,0,0,1-1.33,1.32"/></clipPath><clipPath id="clip-path-20"><rect class="cls-1" x="-324.31" y="-385.45" width="939.77" height="969.13"/></clipPath><clipPath id="clip-path-21"><path class="cls-3" d="M8.5,11.34a3.59,3.59,0,1,1,3.59-3.59A3.59,3.59,0,0,1,8.5,11.34m0-4.91A1.32,1.32,0,1,0,9.83,7.75,1.33,1.33,0,0,0,8.5,6.43"/></clipPath><clipPath id="clip-path-22"><rect class="cls-1" x="-322.7" y="-385.45" width="939.77" height="969.13"/></clipPath><clipPath id="clip-path-23"><path class="cls-3" d="M26.07,11.34a3.59,3.59,0,1,1,3.59-3.59,3.59,3.59,0,0,1-3.59,3.59m0-4.91a1.32,1.32,0,1,0,1.32,1.32,1.32,1.32,0,0,0-1.32-1.32"/></clipPath><clipPath id="clip-path-24"><rect class="cls-1" x="-324.71" y="-385.45" width="939.77" height="969.13"/></clipPath><clipPath id="clip-path-25"><path class="cls-3" d="M-47.21,13.44H-107.7V6a8,8,0,0,1,8-8h44.43a8,8,0,0,1,8,8Z"/></clipPath></defs><title>Artboard 8</title><path class="cls-9" d="M-849.59,24.14h-.17A1.46,1.46,0,0,0-851,25.78l1,8.93A1.46,1.46,0,0,0-848.58,36a1.48,1.48,0,0,0,1.47-1.64l-1-8.94a1.47,1.47,0,0,0-1.46-1.3"/><g class="cls-10"><rect class="cls-11" x="-1110.52" y="-591.82" width="1426" height="1470.56"/></g><g class="cls-18"><g class="cls-19"><rect class="cls-20" x="13.9" y="22.44" width="15.01" height="19.58"/></g></g><g class="cls-21"><g class="cls-19"><rect class="cls-20" x="33.48" y="22.44" width="15.01" height="19.58"/></g></g><g class="cls-22"><g class="cls-19"><rect class="cls-20" x="24.34" y="18.52" width="13.05" height="28.06"/></g></g><g class="cls-23"><g class="cls-24"><rect class="cls-11" x="10.48" y="0.9" width="13.7" height="13.7"/></g></g><g class="cls-25"><g class="cls-26"><rect class="cls-27" x="1.65" y="0.9" width="13.7" height="13.7"/></g></g><g class="cls-28"><g class="cls-29"><rect class="cls-30" x="19.22" y="0.9" width="13.7" height="13.7"/></g></g><path class="cls-31" d="M62.27,32V48.9a5.51,5.51,0,0,1-5.51,5.51H6.51A5.51,5.51,0,0,1,1,48.9V6.51A5.51,5.51,0,0,1,6.51,1H56.76a5.51,5.51,0,0,1,5.51,5.51V21.65"/><line class="cls-31" x1="62.27" y1="26" x2="62.27" y2="27.61"/><line class="cls-32" x1="1" y1="14.79" x2="62.27" y2="14.79"/></svg>