<?xml version="1.0" encoding="utf-8"?>
<svg version="1.1" id="Layer_1" xmlns="http://www.w3.org/2000/svg" xmlns:xlink="http://www.w3.org/1999/xlink" x="0px" y="0px"
	 viewBox="0 0 18 14" style="enable-background:new 0 0 18 14;" xml:space="preserve">
<style type="text/css">
	.st0{fill:#FFFFFF;}
</style>
<title>envelope (1) copy</title>
<desc>Created with Sketch.</desc>
<g id="Page-1">
	<g id="iPhone_home" transform="translate(-42.000000, -2315.000000)">
		<g id="envelope-_x28_1_x29_-copy" transform="translate(42.000000, 2315.000000)">
			<path id="Shape" class="st0" d="M15.8,0H2.2C1,0,0,1,0,2.2v9.5C0,13,1,14,2.2,14h13.6c1.2,0,2.2-1,2.2-2.2V2.3C18,1,17,0,15.8,0z
				 M17,11.8c0,0.7-0.5,1.2-1.2,1.2H2.2C1.5,13,1,12.4,1,11.8V2.3C1,1.6,1.5,1,2.2,1h13.6C16.5,1,17,1.6,17,2.3L17,11.8L17,11.8z"/>
			<path id="Path" class="st0" d="M11.4,6.9l4.4-4c0.2-0.2,0.2-0.5,0-0.7c-0.2-0.2-0.5-0.2-0.7,0L9,7.6L7.8,6.6c0,0,0,0,0,0
				c0,0-0.1,0-0.1-0.1L2.8,2.1C2.6,1.9,2.3,2,2.1,2.2C1.9,2.4,2,2.7,2.2,2.9l4.5,4l-4.5,4.2c-0.2,0.2-0.2,0.5,0,0.7
				C2.3,11.9,2.4,12,2.5,12c0.1,0,0.2,0,0.3-0.1l4.6-4.3l1.2,1.1C8.8,8.8,8.9,8.8,9,8.8c0.1,0,0.2,0,0.3-0.1l1.3-1.1l4.5,4.3
				c0.1,0.1,0.2,0.1,0.4,0.1c0.1,0,0.3-0.1,0.4-0.2c0.2-0.2,0.2-0.5,0-0.7L11.4,6.9z"/>
		</g>
	</g>
</g>
</svg>
