<svg xmlns="http://www.w3.org/2000/svg" viewBox="0 0 82.95 91.08">
  <defs>
    <style>
      .cls-1 {
        fill: #fff;
        fill-rule: evenodd;
      }
    </style>
  </defs>
  <title>Asset 1</title>
  <g id="Layer_2" data-name="Layer 2">
    <g id="Layer_1-2" data-name="Layer 1">
      <path class="cls-1" d="M29.46,89.88c0-1.44-.05-6.2-.08-11.24C12.58,82.29,9,71.51,9,71.51c-2.75-7-6.71-8.83-6.71-8.83-5.48-3.75.42-3.67.42-3.67,6.06.42,9.25,6.22,9.25,6.22,5.39,9.23,14.13,6.56,17.58,5,.54-3.9,2.1-6.57,3.83-8.08C20,60.65,5.9,55.47,5.9,32.33a23.39,23.39,0,0,1,6.22-16.21c-.63-1.52-2.7-7.66.58-16,0,0,5.07-1.62,16.61,6.19a57.36,57.36,0,0,1,30.25,0C71.08-1.48,76.15.14,76.15.14c3.28,8.32,1.22,14.46.59,16A23.34,23.34,0,0,1,83,32.33c0,23.19-14.12,28.3-27.57,29.8,2.17,1.87,4.1,5.54,4.1,11.18,0,8.08-.07,14.58-.07,16.57C59.41,91.49,29.46,91.48,29.46,89.88Z"/>
    </g>
  </g>
</svg>
