<?xml version="1.0" encoding="UTF-8"?>
<svg width="18px" height="24px" viewBox="0 0 18 24" version="1.1" xmlns="http://www.w3.org/2000/svg" xmlns:xlink="http://www.w3.org/1999/xlink">
    <g id="Page-1" stroke="none" stroke-width="1" fill="none" fill-rule="evenodd">
        <g id="iPhone_home" transform="translate(-42.000000, -2265.000000)" fill-rule="nonzero" stroke="#5524CB">
            <g id="maps-and-flags-(1)-copy" transform="translate(51.000000, 2277.000000) scale(-1, 1) translate(-51.000000, -2277.000000) translate(43.000000, 2266.000000)">
                <path d="M8,0 C3.58877618,0 0,3.57423092 0,7.96753315 C0,13.4197585 7.1592163,21.4239441 7.46402627,21.7620226 C7.75032762,22.079605 8.2501901,22.0790464 8.53597373,21.7620226 C8.8407837,21.4239441 16,13.4197585 16,7.96753315 C15.9999137,3.57423092 12.4111807,0 8,0 Z M8.0000227,12.4347826 C5.66463309,12.4347826 3.76470588,10.5038529 3.76470588,8.13041171 C3.76470588,5.75697054 5.66467849,3.82608696 8.0000227,3.82608696 C10.3353669,3.82608696 12.2352941,5.75701668 12.2352941,8.13045785 C12.2352941,10.503899 10.3353669,12.4347826 8.0000227,12.4347826 Z" id="Shape"></path>
            </g>
        </g>
    </g>
</svg>
