<svg id="Layer_1" data-name="Layer 1" xmlns="http://www.w3.org/2000/svg" xmlns:xlink="http://www.w3.org/1999/xlink" viewBox="0 0 103.36 69.45"><defs><style>.cls-1,.cls-19,.cls-20,.cls-3{fill:none;}.cls-11,.cls-2,.cls-9{fill:#f9e2a6;}.cls-2,.cls-3{clip-rule:evenodd;}.cls-4{clip-path:url(#clip-path);}.cls-5{clip-path:url(#clip-path-2);}.cls-6{clip-path:url(#clip-path-3);}.cls-7{clip-path:url(#clip-path-4);}.cls-8{clip-path:url(#clip-path-5);}.cls-9{fill-rule:evenodd;}.cls-10{clip-path:url(#clip-path-6);}.cls-12{clip-path:url(#clip-path-7);}.cls-13{clip-path:url(#clip-path-8);}.cls-14{clip-path:url(#clip-path-9);}.cls-15{clip-path:url(#clip-path-10);}.cls-16{clip-path:url(#clip-path-11);}.cls-17{clip-path:url(#clip-path-12);}.cls-18{fill:#fff;}.cls-18,.cls-19{stroke:#2f2767;stroke-miterlimit:10;}.cls-18,.cls-19,.cls-20{stroke-linecap:round;stroke-width:2px;}.cls-20{stroke:#afdedf;stroke-linejoin:round;}.cls-21{clip-path:url(#clip-path-13);}</style><clipPath id="clip-path"><rect class="cls-1" x="-207.96" y="-487.47" width="92.44" height="101.85"/></clipPath><clipPath id="clip-path-2"><path class="cls-3" d="M-146.18-486.62a3.91,3.91,0,0,0-1,.13c-1.91.49-8.42,2.21-12.23,3.46a5.64,5.64,0,0,0-3.79,4.41c-.11.61-.17,2.9-.17,3.39,0,2.37.47,3.14,2.36,9.59.34,1.12,1.79,3,5.07,3a16,16,0,0,0,6.17-1.55h0a.06.06,0,0,1,0,0c2.44,1.85,3.16,2.4,11.4,3.93a.36.36,0,0,1,.29.28,28.81,28.81,0,0,1,.86,3.66c-.64,2.1-2.88,9.64-4.71,18.39a1.49,1.49,0,0,0,1.13,1.77,1.63,1.63,0,0,0,.31,0A1.47,1.47,0,0,0-139-437.3c4.92-23.5,5.77-15.45,3.83-23.39a3.33,3.33,0,0,0-2.61-2.49c-7.88-1.47-8.21-1.89-10.18-3.39a3,3,0,0,0-1.8-.61,3.14,3.14,0,0,0-1.19.25,13.17,13.17,0,0,1-5,1.31c-1.76,0-2.21-.78-2.28-.94-2.33-8-2.33-6.72-2.15-10.69a5.92,5.92,0,0,1,.06-.83,2.68,2.68,0,0,1,1.8-2.12c3.73-1.22,10.17-2.92,12.06-3.41l.19,0c2.66,0,15.82,9.49,17.66,10.85a13,13,0,0,1,4.63,9.53c.32,4.83.73,9.13,1.24,13.13a1.48,1.48,0,0,0,1.46,1.29h.19a1.49,1.49,0,0,0,1.27-1.67c-.51-3.94-.91-8.17-1.23-12.94-.35-5.27-2.85-9.54-5.8-11.72-.52-.38-12.94-9.54-18-11.25A4.23,4.23,0,0,0-146.18-486.62Z"/></clipPath><clipPath id="clip-path-3"><path class="cls-3" d="M-119.08-446l-.24,0a1.46,1.46,0,0,0-1.22,1.68,91.61,91.61,0,0,1,1.7,15.41c.2,11.1-2.27,22.1-3.19,29.51a6.12,6.12,0,0,1-4.06,5,67.6,67.6,0,0,1-21.23,3.9c-8,0-15.56-2.07-21-7.65a4.52,4.52,0,0,0-3.25-1.36,4.51,4.51,0,0,0-1.31.19,34.32,34.32,0,0,1-9.7,1.42,29.53,29.53,0,0,1-7.5-.93C-199-401.18-203-412.74-203-423.15v-7.8a4.32,4.32,0,0,1,4.33-4.31l.4,0a29.09,29.09,0,0,1,17,7.71,47.51,47.51,0,0,1,5.19,5.77,2.8,2.8,0,0,0,2.28,1.11,2.82,2.82,0,0,0,2.09-.89,17.7,17.7,0,0,1,13-5.59,17.91,17.91,0,0,1,14.48,7.29,2.17,2.17,0,0,0,1.77.9,2.19,2.19,0,0,0,2.22-2.07,88.06,88.06,0,0,1,1.3-10.78,1.48,1.48,0,0,0-1.21-1.7l-.26,0a1.49,1.49,0,0,0-1.46,1.22c-.58,3.34-1,6.42-1.21,9.18a20.83,20.83,0,0,0-15.58-7,20.81,20.81,0,0,0-15.09,6.44,48.21,48.21,0,0,0-5.47-6.05,32.3,32.3,0,0,0-18.69-8.48c-.23,0-.47,0-.7,0a7.26,7.26,0,0,0-7.33,7.24c0,7.91-.53,15.84,3.34,24.17,2.67,5.73,6.74,9.45,11.76,10.76a32.63,32.63,0,0,0,8.26,1A36.84,36.84,0,0,0-172-396.54a1.74,1.74,0,0,1,.45-.06,1.58,1.58,0,0,1,1.13.46c6.06,6.22,14.37,8.55,23.14,8.55a70,70,0,0,0,22.19-4.07,9.05,9.05,0,0,0,6-7.39c.92-7.37,3.42-18.47,3.22-29.92a94.29,94.29,0,0,0-1.74-15.82,1.48,1.48,0,0,0-1.47-1.23"/></clipPath><clipPath id="clip-path-4"><path class="cls-3" d="M-176.78-439.09a1.5,1.5,0,0,0-1.1.47,1.36,1.36,0,0,0,.12,2c6.29,5.38,6.22,5.47,6.88,5.47h.08a1.4,1.4,0,0,0,1-2.45l-6-5.11a1.5,1.5,0,0,0-1-.36"/></clipPath><clipPath id="clip-path-5"><path class="cls-3" d="M-147.9-442.06a1.32,1.32,0,0,0-1.1.58l-4.25,6.16a1.4,1.4,0,0,0,.33,1.92,1.29,1.29,0,0,0,.77.25,1.33,1.33,0,0,0,1.1-.58l4.24-6.16a1.39,1.39,0,0,0-.32-1.92,1.33,1.33,0,0,0-.77-.25"/></clipPath><clipPath id="clip-path-6"><path class="cls-2" d="M-162.91-447h-.17a1.47,1.47,0,0,0-1.3,1.63l1,8.93a1.48,1.48,0,0,0,1.46,1.31,1.47,1.47,0,0,0,1.47-1.64l-1-8.93a1.47,1.47,0,0,0-1.46-1.31"/></clipPath><clipPath id="clip-path-7"><path class="cls-3" d="M328.73-387.56a.36.36,0,0,1-.26-.1L315.9-400.31h-8.23a7.31,7.31,0,0,1-7.28-7.34V-430a7.31,7.31,0,0,1,7.28-7.33h19.62v-33.28A11.77,11.77,0,0,1,339-482.44h69.12a11.77,11.77,0,0,1,11.73,11.8V-462a.37.37,0,0,1-.36.37.38.38,0,0,1-.37-.37v-8.66a11,11,0,0,0-11-11.07H339a11.05,11.05,0,0,0-11,11.07v36.75a11,11,0,0,0,11,11.07h34.56a.38.38,0,0,1,.37.37v20.05l20.17-20.31a.38.38,0,0,1,.26-.11h13.76a11,11,0,0,0,11-11.07v-8.66a.37.37,0,0,1,.37-.36.36.36,0,0,1,.36.36v8.66a11.78,11.78,0,0,1-11.73,11.81H394.53l-20.69,20.82a.34.34,0,0,1-.26.11.31.31,0,0,1-.13,0,.37.37,0,0,1-.23-.34v-20.56H357.07v14.43a7.32,7.32,0,0,1-7.29,7.34H329.09v12.39a.38.38,0,0,1-.22.34Zm-21.06-49.07a6.59,6.59,0,0,0-6.56,6.6v22.38a6.59,6.59,0,0,0,6.56,6.61h8.39a.4.4,0,0,1,.26.11l12,12.12v-11.87a.37.37,0,0,1,.37-.36h21a6.59,6.59,0,0,0,6.56-6.61v-14.43H339a11.78,11.78,0,0,1-11.73-11.81v-2.74Z"/></clipPath><clipPath id="clip-path-8"><path class="cls-3" d="M407.33-483.61H338.54a13.76,13.76,0,0,0-13.72,13.78v31H307.34a9.32,9.32,0,0,0-9.3,9.34v22.24a9.33,9.33,0,0,0,9.3,9.34h7.34l11.91,12a2.42,2.42,0,0,0,1.7.71,2.3,2.3,0,0,0,.92-.19,2.4,2.4,0,0,0,1.48-2.23v-10.26h18.55a9.33,9.33,0,0,0,9.3-9.34v-12.3h12v18.39a2.42,2.42,0,0,0,1.48,2.23,2.3,2.3,0,0,0,.92.19,2.4,2.4,0,0,0,1.7-.71l20-20.1h12.7A13.76,13.76,0,0,0,421-433.31v-8.6a2.4,2.4,0,0,0-2.4-2.42,2.4,2.4,0,0,0-2.4,2.42v8.6a9,9,0,0,1-8.91,9h-13.7a2.39,2.39,0,0,0-1.69.7L375.33-407v-15a2.4,2.4,0,0,0-2.4-2.41H338.54a8.94,8.94,0,0,1-8.91-9v-36.52a8.94,8.94,0,0,1,8.91-9h68.79a9,9,0,0,1,8.91,9v8.6a2.4,2.4,0,0,0,2.4,2.42,2.4,2.4,0,0,0,2.4-2.42v-8.6A13.76,13.76,0,0,0,407.33-483.61Zm-100,80.89a4.5,4.5,0,0,1-4.49-4.51v-22.24a4.51,4.51,0,0,1,4.49-4.52h17.48v.68a13.76,13.76,0,0,0,13.72,13.78h15.19v12.3a4.5,4.5,0,0,1-4.49,4.51H328.29a2.41,2.41,0,0,0-2.4,2.42v6.84L317.38-402a2.41,2.41,0,0,0-1.7-.71Z"/></clipPath><clipPath id="clip-path-9"><path class="cls-3" d="M396.39-467.21H349.64a2.38,2.38,0,0,0-2.4,2.34,2.38,2.38,0,0,0,2.4,2.34h46.75a2.38,2.38,0,0,0,2.4-2.34,2.38,2.38,0,0,0-2.4-2.34"/></clipPath><clipPath id="clip-path-10"><path class="cls-3" d="M398.79-453.16a2.38,2.38,0,0,0-2.4-2.34H349.64a2.38,2.38,0,0,0-2.4,2.34,2.38,2.38,0,0,0,2.4,2.35h46.75a2.38,2.38,0,0,0,2.4-2.35"/></clipPath><clipPath id="clip-path-11"><path class="cls-3" d="M349.63-441.44a2.37,2.37,0,0,0-2.39,2.34,2.37,2.37,0,0,0,2.39,2.34h26.85a2.37,2.37,0,0,0,2.39-2.34,2.37,2.37,0,0,0-2.39-2.34Z"/></clipPath><clipPath id="clip-path-12"><path class="cls-3" d="M418.7-454.33a2.34,2.34,0,0,0-2.34,2.34,2.35,2.35,0,0,0,2.34,2.35A2.35,2.35,0,0,0,421-452a2.34,2.34,0,0,0-2.34-2.34"/></clipPath><clipPath id="clip-path-13"><path class="cls-3" d="M639.47-457.71H579v-7.41a8,8,0,0,1,8-8h44.44a8,8,0,0,1,8,8Z"/></clipPath></defs><title>Artboard 13</title><path class="cls-9" d="M-162.91-447h-.17a1.47,1.47,0,0,0-1.3,1.63l1,8.93a1.48,1.48,0,0,0,1.46,1.31,1.47,1.47,0,0,0,1.47-1.64l-1-8.93a1.47,1.47,0,0,0-1.46-1.31"/><g class="cls-10"><rect class="cls-11" x="-423.84" y="-1062.96" width="1426" height="1470.56"/></g><path class="cls-18" d="M1.27,46A26.73,26.73,0,0,0,1,49.85v4.73a1.32,1.32,0,0,0,1.33,1.33H54V49.85A26.51,26.51,0,0,0,27.51,23.34h0A26.48,26.48,0,0,0,4.23,37.17"/><circle class="cls-18" cx="27.32" cy="14.82" r="13.82"/><path class="cls-19" d="M2.7,40.5c-.19.51-.37,1-.53,1.54"/><path class="cls-18" d="M49.7,44.78A26.81,26.81,0,0,0,49.18,50V56.1h50.93A2.09,2.09,0,0,0,102.2,54V50A26.51,26.51,0,0,0,75.69,23.53h0A26.52,26.52,0,0,0,52.05,38"/><circle class="cls-18" cx="75.5" cy="15.01" r="13.82"/><path class="cls-19" d="M50.88,40.69c-.19.51-.37,1-.53,1.54"/><path class="cls-18" d="M21.16,55.64a29.94,29.94,0,0,0-.59,6V66A2.47,2.47,0,0,0,23,68.45H78.1A2.48,2.48,0,0,0,80.57,66V61.59a30,30,0,0,0-30-30h0A30,30,0,0,0,23.82,48"/><circle class="cls-18" cx="50.35" cy="21.95" r="15.64"/><path class="cls-19" d="M22.49,51c-.22.57-.33.91-.51,1.5"/><polyline class="cls-20" points="54.02 53.42 77.26 29.2 84.35 36.02 101.96 17.69 93.27 17.69"/><line class="cls-20" x1="51.59" y1="55.91" x2="51.8" y2="55.68"/><line class="cls-20" x1="47.56" y1="60.04" x2="49.18" y2="58.38"/><line class="cls-20" x1="101.96" y1="17.69" x2="102.36" y2="26.22"/></svg>