<?xml version="1.0" encoding="UTF-8"?>
<svg width="19px" height="19px" viewBox="0 0 19 19" version="1.1" xmlns="http://www.w3.org/2000/svg" xmlns:xlink="http://www.w3.org/1999/xlink">
    <title>phone-call</title>
    <g id="Page-1" stroke="none" stroke-width="1" fill="none" fill-rule="evenodd">
        <g id="iPhone_home" transform="translate(-42.000000, -2348.000000)" fill="#5524CB" fill-rule="nonzero">
            <g id="phone-call-copy" transform="translate(42.000000, 2348.000000)">
                <path d="M15.1526388,11.7298387 C14.7597597,11.3225806 14.2858746,11.1048387 13.7836373,11.1048387 C13.2854504,11.1048387 12.8075149,11.3185484 12.3984346,11.7258065 L11.1185397,12.9959677 C11.0132319,12.9395161 10.9079241,12.8870968 10.8066666,12.8346774 C10.6608557,12.7620968 10.5231455,12.6935484 10.4056868,12.6209677 C9.20679791,11.8629032 8.11726711,10.875 7.07228962,9.59677419 C6.56600207,8.95967742 6.22577684,8.4233871 5.97870852,7.87903226 C6.31083315,7.5766129 6.61865598,7.26209677 6.91837821,6.95967742 C7.03178662,6.84677419 7.14519503,6.72983871 7.25860344,6.61693548 C8.10916651,5.77016129 8.10916651,4.6733871 7.25860344,3.8266129 L6.15287144,2.72580645 C6.02731213,2.60080645 5.89770251,2.47177419 5.7761935,2.34274194 C5.53317548,2.09274194 5.27800656,1.83467742 5.01473704,1.59274194 C4.6218579,1.20564516 4.15202306,1 3.65788641,1 C3.16374977,1 2.68581433,1.20564516 2.28078429,1.59274194 C2.27673399,1.59677419 2.27673399,1.59677419 2.27268369,1.60080645 L0.895581566,2.98387097 C0.377143119,3.5 0.0814711927,4.12903226 0.0166663869,4.85887097 C-0.0805408218,6.03629032 0.267785009,7.13306452 0.535104833,7.85080645 C1.19125349,9.61290323 2.17142618,11.2459677 3.63358461,12.9959677 C5.40761617,15.1048387 7.54212446,16.7701613 9.98040528,17.9435484 C10.9119744,18.3830645 12.1554166,18.9032258 13.5446696,18.9919355 C13.6297259,18.9959677 13.7188325,19 13.7998385,19 C14.7354579,19 15.5212162,18.6653226 16.1368618,18 C16.1409121,17.9919355 16.1490127,17.9879032 16.153063,17.9798387 C16.3636787,17.7258065 16.6066967,17.4959677 16.8618656,17.25 C17.0360285,17.0846774 17.2142417,16.9112903 17.3884046,16.7298387 C17.7893844,16.3145161 18,15.8306452 18,15.3346774 C18,14.8346774 17.7853341,14.3548387 17.3762537,13.9516129 L15.1526388,11.7298387 Z M16.6026464,15.9758065 C16.5985961,15.9758065 16.5985961,15.9798387 16.6026464,15.9758065 C16.4446847,16.1451613 16.2826726,16.2983871 16.1085097,16.4677419 C15.8452402,16.7177419 15.5779204,16.9798387 15.3268018,17.2741935 C14.9177214,17.7096774 14.4357357,17.9153226 13.8038888,17.9153226 C13.7431343,17.9153226 13.6783295,17.9153226 13.617575,17.9112903 C12.4146358,17.8346774 11.2967529,17.3669355 10.4583407,16.9677419 C8.16587072,15.8629032 6.15287144,14.2943548 4.48009739,12.3064516 C3.09894496,10.6491935 2.17547648,9.11693548 1.56388113,7.47177419 C1.18720319,6.46774194 1.04949298,5.68548387 1.11024748,4.94758065 C1.15075049,4.47580645 1.333014,4.08467742 1.66918894,3.75 L3.05034136,2.375 C3.24880608,2.18951613 3.4594217,2.08870968 3.66598701,2.08870968 C3.92115594,2.08870968 4.12772126,2.24193548 4.25733087,2.37096774 C4.26138117,2.375 4.26543147,2.37903226 4.26948177,2.38306452 C4.51655009,2.61290323 4.75146751,2.85080645 4.99853583,3.10483871 C5.12409515,3.23387097 5.25370476,3.36290323 5.38331437,3.49596774 L6.48904637,4.59677419 C6.91837821,5.02419355 6.91837821,5.41935484 6.48904637,5.84677419 C6.37158766,5.96370968 6.25817925,6.08064516 6.14072054,6.19354839 C5.80049531,6.54032258 5.47647128,6.86290323 5.12409515,7.17741935 C5.11599454,7.18548387 5.10789394,7.18951613 5.10384364,7.19758065 C4.75551781,7.54435484 4.82032262,7.88306452 4.89322802,8.11290323 C4.89727832,8.125 4.90132863,8.13709677 4.90537893,8.14919355 C5.19295025,8.84274194 5.59798029,9.49596774 6.21362594,10.2741935 L6.21767624,10.2782258 C7.33555914,11.6491935 8.51419655,12.7177419 9.81434297,13.5362903 C9.98040528,13.641129 10.1505179,13.7258065 10.3125299,13.8064516 C10.4583407,13.8790323 10.5960509,13.9475806 10.7135096,14.0201613 C10.7297108,14.0282258 10.745912,14.0403226 10.7621133,14.0483871 C10.8998235,14.1169355 11.0294331,14.1491935 11.163093,14.1491935 C11.4992679,14.1491935 11.7098835,13.9395161 11.7787386,13.8709677 L13.1639414,12.4919355 C13.3016516,12.3548387 13.5203678,12.1895161 13.7755367,12.1895161 C14.0266553,12.1895161 14.2332207,12.3467742 14.35878,12.483871 C14.3628303,12.4879032 14.3628303,12.4879032 14.3668806,12.4919355 L16.5985961,14.7137097 C17.015777,15.125 17.015777,15.5483871 16.6026464,15.9758065 Z" id="Shape"></path>
                <path d="M10.3891031,4.93782741 C11.3065159,5.09190982 12.1398909,5.52614206 12.8051902,6.19149791 C13.4704896,6.85685377 13.9011834,7.69029953 14.0587543,8.60779023 C14.0972716,8.83891385 14.2968614,9 14.5244639,9 C14.5524765,9 14.5769875,8.99649813 14.6050001,8.99299625 C14.8641167,8.95097378 15.0356939,8.70584267 14.993675,8.44670408 C14.8045899,7.33661036 14.2793536,6.32456909 13.4774928,5.52264019 C12.6756319,4.72071129 11.6636766,4.19543035 10.5536771,4.00632921 C10.2945605,3.96430673 10.0529518,4.13589851 10.0074313,4.39153523 C9.96191086,4.64717195 10.1299865,4.89580493 10.3891031,4.93782741 Z" id="Path"></path>
                <path d="M18.9908399,9.30544986 C18.5947324,6.98137824 17.4998733,4.86656211 15.8175288,3.1836137 C14.1351844,1.50066528 12.0211272,0.405413138 9.6978896,0.00916337853 C9.37299239,-0.0487157998 9.06589776,0.173896424 9.00803936,0.498910272 C8.9546316,0.828376364 9.17271329,1.13558123 9.50206114,1.19346041 C11.5760625,1.54518773 13.4675874,2.52913376 14.9719059,4.02954015 C16.4762245,5.53439878 17.4553668,7.42660269 17.8069679,9.50134862 C17.855925,9.79519675 18.1096119,10 18.3989039,10 C18.4345091,10 18.4656636,9.99554776 18.5012688,9.99109551 C18.826166,9.94212082 19.0486983,9.63046371 18.9908399,9.30544986 Z" id="Path"></path>
            </g>
        </g>
    </g>
</svg>
