<svg id="Layer_1" data-name="Layer 1" xmlns="http://www.w3.org/2000/svg" xmlns:xlink="http://www.w3.org/1999/xlink" viewBox="0 0 69.55 69.98"><defs><style>.cls-1,.cls-3,.cls-4{fill:none;}.cls-2{clip-path:url(#clip-path);}.cls-3{stroke:#2f2767;stroke-linejoin:round;}.cls-3,.cls-4{stroke-linecap:round;}.cls-4{stroke:#ec7241;stroke-miterlimit:10;}.cls-5{clip-path:url(#clip-path-2);}</style><clipPath id="clip-path"><rect class="cls-1" x="-164.41" y="225.57" width="64.23" height="70.77"/></clipPath><clipPath id="clip-path-2"><rect class="cls-1" x="90.21" y="9.48" width="39.57" height="43.6"/></clipPath></defs><title>text</title><path class="cls-3" d="M17.87,33.88H15.2A3.1,3.1,0,0,0,12.1,37v6"/><path class="cls-3" d="M12.1,43v3.13a3.1,3.1,0,0,0,3.1,3.1h.74a.67.67,0,0,1,.44.18l4.19,4a.23.23,0,0,0,.39-.17V49.67a.49.49,0,0,1,.48-.49h11a3.1,3.1,0,0,0,3.1-3.1V42"/><line class="cls-4" x1="25.08" y1="22.8" x2="52.34" y2="22.8"/><line class="cls-4" x1="25.08" y1="28.34" x2="52.34" y2="28.34"/><line class="cls-4" x1="25.08" y1="33.88" x2="38.76" y2="33.88"/><line class="cls-3" x1="59.64" y1="27.16" x2="59.64" y2="25.96"/><path class="cls-3" d="M59.64,24.1V20.22a5.53,5.53,0,0,0-5.53-5.53H23.4a5.54,5.54,0,0,0-5.53,5.53V36.46A5.54,5.54,0,0,0,23.4,42H43a.87.87,0,0,1,.87.86v6.24a.41.41,0,0,0,.7.3L52,42.31A1.12,1.12,0,0,1,52.8,42h1.31a5.53,5.53,0,0,0,5.53-5.53V30.87"/></svg>